<?xml version="1.0" encoding="UTF-8" standalone="no"?>
<svg
   xmlns:dc="http://purl.org/dc/elements/1.1/"
   xmlns:cc="http://creativecommons.org/ns#"
   xmlns:rdf="http://www.w3.org/1999/02/22-rdf-syntax-ns#"
   xmlns:svg="http://www.w3.org/2000/svg"
   xmlns="http://www.w3.org/2000/svg"
   xmlns:sodipodi="http://sodipodi.sourceforge.net/DTD/sodipodi-0.dtd"
   xmlns:inkscape="http://www.inkscape.org/namespaces/inkscape"
   width="18.520832mm"
   height="18.520832mm"
   viewBox="0 0 18.520832 18.520832"
   version="1.1"
   id="svg3318"
   inkscape:version="1.0.2 (e86c8708, 2021-01-15)"
   sodipodi:docname="chtoj_icon.svg">
  <defs
     id="defs3312" />
  <sodipodi:namedview
     id="base"
     pagecolor="#ffffff"
     bordercolor="#666666"
     borderopacity="1.0"
     inkscape:pageopacity="0.0"
     inkscape:pageshadow="2"
     inkscape:zoom="1.4068733"
     inkscape:cx="50.858175"
     inkscape:cy="110.58538"
     inkscape:document-units="mm"
     inkscape:current-layer="layer1"
     inkscape:document-rotation="0"
     showgrid="false"
     fit-margin-top="0"
     fit-margin-left="0"
     fit-margin-right="0"
     fit-margin-bottom="0"
     inkscape:window-width="1252"
     inkscape:window-height="855"
     inkscape:window-x="0"
     inkscape:window-y="23"
     inkscape:window-maximized="0" />
  <metadata
     id="metadata3315">
    <rdf:RDF>
      <cc:Work
         rdf:about="">
        <dc:format>image/svg+xml</dc:format>
        <dc:type
           rdf:resource="http://purl.org/dc/dcmitype/StillImage" />
        <dc:title></dc:title>
      </cc:Work>
    </rdf:RDF>
  </metadata>
  <g
     inkscape:label="Layer 1"
     inkscape:groupmode="layer"
     id="layer1"
     transform="translate(-39.876489,-41.388394)">
    <path
       class="st0"
       d="m 43.612048,49.661769 c -0.584118,-3.932455 2.47499,-6.698284 8.211818,-8.273375 -3.512754,3.422996 2.994871,7.130867 3.354175,10.684996 0.841055,-1.077693 1.31879,-2.515624 1.413132,-4.438893 4.301612,5.067424 0.734669,13.349853 -8.7317,12.159107 -0.869156,-0.108527 -1.706197,-0.315024 -2.468967,-0.622509 -3.452532,-1.383665 -5.514017,-4.399701 -5.514017,-7.280082 0,-1.835849 1.045797,-3.474246 2.39871,-4.77652 0.180655,1.275143 0.566052,2.226228 1.336849,2.547276 z"
       id="path1536-1"
       style="clip-rule:evenodd;fill:#ec6f59;fill-rule:evenodd;stroke-width:0.17394"
       inkscape:export-xdpi="43.885715"
       inkscape:export-ydpi="43.885715" />
    <path
       class="st1"
       d="m 46.675172,55.342645 c -0.97554,-1.891614 -0.841055,-4.94684 1.890866,-6.018506 0.02008,3.511928 4.626798,3.959588 3.773699,7.708154 0.786858,-0.669229 1.184301,-1.739387 1.254556,-2.584961 1.248532,2.146345 0.268976,3.863126 -1.511488,4.737328 -5.413655,2.658822 -10.074576,-2.731159 -6.975324,-5.685399 0.09434,0.660184 1.170247,1.679094 1.567691,1.843384 z"
       id="path1538-0"
       style="clip-rule:evenodd;fill:#fad15c;fill-rule:evenodd;stroke-width:0.17394"
       inkscape:export-xdpi="43.885715"
       inkscape:export-ydpi="43.885715" />
  </g>
</svg>
