<?xml version="1.0" encoding="UTF-8" standalone="no"?>
<svg
   xmlns:dc="http://purl.org/dc/elements/1.1/"
   xmlns:cc="http://creativecommons.org/ns#"
   xmlns:rdf="http://www.w3.org/1999/02/22-rdf-syntax-ns#"
   xmlns:svg="http://www.w3.org/2000/svg"
   xmlns="http://www.w3.org/2000/svg"
   xmlns:sodipodi="http://sodipodi.sourceforge.net/DTD/sodipodi-0.dtd"
   xmlns:inkscape="http://www.inkscape.org/namespaces/inkscape"
   version="1.1"
   id="Layer_1"
   x="0px"
   y="0px"
   viewBox="0 0 190.70412 47.902554"
   xml:space="preserve"
   sodipodi:docname="chtoj_logo.svg"
   inkscape:version="1.0.2 (e86c8708, 2021-01-15)"
   width="50.45713mm"
   height="12.674217mm"
   inkscape:export-filename="/Users/theanht1/Pictures/chtoj_logo.png"
   inkscape:export-xdpi="151.01929"
   inkscape:export-ydpi="151.01929"><metadata
     id="metadata1547"><rdf:RDF><cc:Work
         rdf:about=""><dc:format>image/svg+xml</dc:format><dc:type
           rdf:resource="http://purl.org/dc/dcmitype/StillImage" /><dc:title></dc:title></cc:Work></rdf:RDF></metadata><defs
     id="defs1545" /><sodipodi:namedview
     pagecolor="#ffffff"
     bordercolor="#666666"
     borderopacity="1"
     objecttolerance="10"
     gridtolerance="10"
     guidetolerance="10"
     inkscape:pageopacity="0"
     inkscape:pageshadow="2"
     inkscape:window-width="1219"
     inkscape:window-height="725"
     id="namedview1543"
     showgrid="false"
     inkscape:zoom="1.0064517"
     inkscape:cx="18.778433"
     inkscape:cy="51.95891"
     inkscape:window-x="0"
     inkscape:window-y="323"
     inkscape:window-maximized="0"
     inkscape:current-layer="g1540"
     units="mm"
     inkscape:snap-object-midpoints="false"
     fit-margin-top="0"
     fit-margin-left="0"
     fit-margin-right="0"
     fit-margin-bottom="0"
     showguides="false" /><style
     type="text/css"
     id="style1534">.st0{fill-rule:evenodd;clip-rule:evenodd;fill:#EC6F59;} .st1{fill-rule:evenodd;clip-rule:evenodd;fill:#FAD15C;}</style><g
     id="g1540"
     transform="translate(-8.2359962,-11.260851)"><g
       aria-label="CHTOJ"
       id="text1588"
       style="font-style:normal;font-weight:normal;font-size:66.8097px;line-height:1.25;font-family:sans-serif;fill:#ec6f59;fill-opacity:1;stroke:none;stroke-width:1.67024"><path
         d="m 28.679764,11.260851 c -11.224029,0 -20.4437678,8.418022 -20.4437678,23.917873 0,15.63347 8.8188808,23.984682 20.5773878,23.984682 6.74778,0 11.357649,-2.471959 14.430895,-5.478395 l -3.741343,-4.743489 c -2.538769,2.004291 -5.478396,3.941772 -10.422313,3.941772 -7.282258,0 -12.760653,-4.943918 -12.760653,-17.70457 0,-13.027892 5.812444,-17.83819 12.693843,-17.83819 3.607724,0 6.74778,1.135765 9.553787,3.407295 L 42.576182,15.93753 C 38.834839,12.931094 34.959876,11.260851 28.679764,11.260851 Z"
         style="font-style:normal;font-variant:normal;font-weight:500;font-stretch:normal;font-size:66.8097px;font-family:'Fira Mono for Powerline';-inkscape-font-specification:'Fira Mono for Powerline, Medium';font-variant-ligatures:normal;font-variant-caps:normal;font-variant-numeric:normal;font-variant-east-asian:normal;opacity:0.99;fill:#e6e6e6;fill-opacity:1;stroke-width:1.67024"
         id="path3604" /><path
         d="m 72.414021,58.29488 h 7.749925 V 12.196187 H 72.414021 V 30.969713 H 57.315029 V 12.196187 H 49.565103 V 58.29488 h 7.749926 V 37.316634 h 15.098992 z"
         style="font-style:normal;font-variant:normal;font-weight:500;font-stretch:normal;font-size:66.8097px;font-family:'Fira Mono for Powerline';-inkscape-font-specification:'Fira Mono for Powerline, Medium';font-variant-ligatures:normal;font-variant-caps:normal;font-variant-numeric:normal;font-variant-east-asian:normal;opacity:0.99;fill:#e6e6e6;fill-opacity:1;stroke-width:1.67024"
         id="path3606" /><path
         d="m 108.7324,18.476299 h 13.29513 l 0.80172,-6.280112 H 87.086058 v 6.280112 H 100.98248 V 58.29488 h 7.74992 z"
         style="font-style:normal;font-variant:normal;font-weight:500;font-stretch:normal;font-size:66.8097px;font-family:'Fira Mono for Powerline';-inkscape-font-specification:'Fira Mono for Powerline, Medium';font-variant-ligatures:normal;font-variant-caps:normal;font-variant-numeric:normal;font-variant-east-asian:normal;opacity:0.99;fill:#e6e6e6;fill-opacity:1;stroke-width:1.67024"
         id="path3608" /><path
         d="m 162.48811,35.245533 c 0,-14.497704 -5.94606,-23.984682 -17.50414,-23.984682 -11.55808,0 -17.50414,9.821026 -17.50414,24.051492 0,14.497705 5.94606,23.851063 17.50414,23.851063 11.55808,0 17.50414,-9.687406 17.50414,-23.917873 z m -7.95035,0 c 0,11.892127 -2.7392,17.905 -9.55379,17.905 -6.61416,0 -9.55379,-5.946063 -9.55379,-17.83819 0,-11.958936 2.7392,-17.971809 9.55379,-17.971809 6.81459,0 9.55379,6.012873 9.55379,17.904999 z"
         style="font-style:normal;font-variant:normal;font-weight:500;font-stretch:normal;font-size:66.8097px;font-family:'Fira Mono for Powerline';-inkscape-font-specification:'Fira Mono for Powerline, Medium';font-variant-ligatures:normal;font-variant-caps:normal;font-variant-numeric:normal;font-variant-east-asian:normal;fill:#c8c4b7;stroke-width:1.67024"
         id="path3610" /><path
         d="m 198.94011,12.196187 h -21.57953 v 5.946063 h 13.82961 v 24.185112 c 0,6.881399 -3.60773,10.756361 -9.35336,10.756361 -3.00644,0 -6.01288,-0.734906 -9.68741,-3.073246 l -3.14005,4.877108 c 3.74134,2.739198 8.08397,4.275821 13.0947,4.275821 12.02574,0 16.83604,-7.816735 16.83604,-16.702425 z"
         style="font-style:normal;font-variant:normal;font-weight:500;font-stretch:normal;font-size:66.8097px;font-family:'Fira Mono for Powerline';-inkscape-font-specification:'Fira Mono for Powerline, Medium';font-variant-ligatures:normal;font-variant-caps:normal;font-variant-numeric:normal;font-variant-east-asian:normal;fill:#c8c4b7;stroke-width:1.67024"
         id="path3612" /></g></g></svg>
